<?xml version="1.0" encoding="UTF-8" standalone="no"?><svg xmlns="http://www.w3.org/2000/svg" xmlns:xlink="http://www.w3.org/1999/xlink" contentScriptType="application/ecmascript" contentStyleType="text/css" height="386px" preserveAspectRatio="none" style="width:513px;height:386px;" version="1.1" viewBox="0 0 513 386" width="513px" zoomAndPan="magnify"><defs><filter height="300%" id="fvq32qmcfu4ei" width="300%" x="-1" y="-1"><feGaussianBlur result="blurOut" stdDeviation="2.0"/><feColorMatrix in="blurOut" result="blurOut2" type="matrix" values="0 0 0 0 0 0 0 0 0 0 0 0 0 0 0 0 0 0 .4 0"/><feOffset dx="4.0" dy="4.0" in="blurOut2" result="blurOut3"/><feBlend in="SourceGraphic" in2="blurOut3" mode="normal"/></filter></defs><g><text fill="#000000" font-family="sans-serif" font-size="18" lengthAdjust="spacingAndGlyphs" textLength="442" x="29" y="17.4023">ER Diagram for furima-28193 created by PlantUML</text><!--MD5=[09a5b4adb0ee554eafb73b413209c7bf]
class Users--><rect codeLine="4" fill="#FEFECE" filter="url(#fvq32qmcfu4ei)" height="177.5508" id="Users" style="stroke: #A80036; stroke-width: 1.5;" width="78" x="9" y="130.6992"/><ellipse cx="30.3" cy="146.6992" fill="#ADD1B2" rx="11" ry="11" style="stroke: #A80036; stroke-width: 1.0;"/><path d="M33.9143,153.1992 L26.1945,153.1992 L26.1945,140.8062 L33.9143,140.8062 L33.9143,142.9644 L28.6433,142.9644 L28.6433,145.6372 L33.4162,145.6372 L33.4162,147.7954 L28.6433,147.7954 L28.6433,151.041 L33.9143,151.041 Z "/><text fill="#000000" font-family="sans-serif" font-size="12" lengthAdjust="spacingAndGlyphs" textLength="32" x="45.7" y="151.2344">Users</text><line style="stroke: #A80036; stroke-width: 1.5;" x1="10" x2="86" y1="162.6992" y2="162.6992"/><ellipse cx="20" cy="173.6992" fill="#000000" rx="3" ry="3" style="stroke: #000000; stroke-width: 1.0;"/><text fill="#000000" font-family="sans-serif" font-size="11" lengthAdjust="spacingAndGlyphs" textLength="10" x="29" y="177.334">id</text><line style="stroke: #A80036; stroke-width: 1.0;" x1="10" x2="86" y1="183.6543" y2="183.6543"/><ellipse cx="20" cy="194.6543" fill="#000000" rx="3" ry="3" style="stroke: #000000; stroke-width: 1.0;"/><text fill="#000000" font-family="sans-serif" font-size="11" lengthAdjust="spacingAndGlyphs" textLength="51" x="29" y="198.2891">firstname</text><ellipse cx="20" cy="207.6094" fill="#000000" rx="3" ry="3" style="stroke: #000000; stroke-width: 1.0;"/><text fill="#000000" font-family="sans-serif" font-size="11" lengthAdjust="spacingAndGlyphs" textLength="48" x="29" y="211.2441">lastname</text><ellipse cx="20" cy="220.5645" fill="#000000" rx="3" ry="3" style="stroke: #000000; stroke-width: 1.0;"/><text fill="#000000" font-family="sans-serif" font-size="11" lengthAdjust="spacingAndGlyphs" textLength="25" x="29" y="224.1992">kana</text><ellipse cx="20" cy="233.5195" fill="#000000" rx="3" ry="3" style="stroke: #000000; stroke-width: 1.0;"/><text fill="#000000" font-family="sans-serif" font-size="11" lengthAdjust="spacingAndGlyphs" textLength="51" x="29" y="237.1543">nickname</text><ellipse cx="20" cy="246.4746" fill="#000000" rx="3" ry="3" style="stroke: #000000; stroke-width: 1.0;"/><text fill="#000000" font-family="sans-serif" font-size="11" lengthAdjust="spacingAndGlyphs" textLength="28" x="29" y="250.1094">email</text><ellipse cx="20" cy="259.4297" fill="#000000" rx="3" ry="3" style="stroke: #000000; stroke-width: 1.0;"/><text fill="#000000" font-family="sans-serif" font-size="11" lengthAdjust="spacingAndGlyphs" textLength="45" x="29" y="263.0645">birthday</text><ellipse cx="20" cy="272.3848" fill="#000000" rx="3" ry="3" style="stroke: #000000; stroke-width: 1.0;"/><text fill="#000000" font-family="sans-serif" font-size="11" lengthAdjust="spacingAndGlyphs" textLength="52" x="29" y="276.0195">password</text><polygon fill="none" points="20,280.3398,24,284.3398,20,288.3398,16,284.3398" style="stroke: #B38D22; stroke-width: 1.0;"/><text fill="#000000" font-family="sans-serif" font-size="11" lengthAdjust="spacingAndGlyphs" textLength="43" x="29" y="288.9746">product</text><polygon fill="none" points="20,293.2949,24,297.2949,20,301.2949,16,297.2949" style="stroke: #B38D22; stroke-width: 1.0;"/><text fill="#000000" font-family="sans-serif" font-size="11" lengthAdjust="spacingAndGlyphs" textLength="50" x="29" y="301.9297">purchase</text><!--MD5=[13987a226768de931953646801a28d93]
class Products--><rect codeLine="18" fill="#FEFECE" filter="url(#fvq32qmcfu4ei)" height="203.4609" id="Products" style="stroke: #A80036; stroke-width: 1.5;" width="210" x="147" y="28.1992"/><ellipse cx="222.75" cy="44.1992" fill="#ADD1B2" rx="11" ry="11" style="stroke: #A80036; stroke-width: 1.0;"/><path d="M226.3643,50.6992 L218.6445,50.6992 L218.6445,38.3062 L226.3643,38.3062 L226.3643,40.4644 L221.0933,40.4644 L221.0933,43.1372 L225.8662,43.1372 L225.8662,45.2954 L221.0933,45.2954 L221.0933,48.541 L226.3643,48.541 Z "/><text fill="#000000" font-family="sans-serif" font-size="12" lengthAdjust="spacingAndGlyphs" textLength="50" x="243.25" y="48.7344">Products</text><line style="stroke: #A80036; stroke-width: 1.5;" x1="148" x2="356" y1="60.1992" y2="60.1992"/><ellipse cx="158" cy="71.1992" fill="#000000" rx="3" ry="3" style="stroke: #000000; stroke-width: 1.0;"/><text fill="#000000" font-family="sans-serif" font-size="11" lengthAdjust="spacingAndGlyphs" textLength="10" x="167" y="74.834">id</text><line style="stroke: #A80036; stroke-width: 1.0;" x1="148" x2="356" y1="81.1543" y2="81.1543"/><ellipse cx="158" cy="92.1543" fill="#000000" rx="3" ry="3" style="stroke: #000000; stroke-width: 1.0;"/><text fill="#000000" font-family="sans-serif" font-size="11" lengthAdjust="spacingAndGlyphs" textLength="29" x="167" y="95.7891">name</text><ellipse cx="158" cy="105.1094" fill="#000000" rx="3" ry="3" style="stroke: #000000; stroke-width: 1.0;"/><text fill="#000000" font-family="sans-serif" font-size="11" lengthAdjust="spacingAndGlyphs" textLength="61" x="167" y="108.7441">description</text><ellipse cx="158" cy="118.0645" fill="#000000" rx="3" ry="3" style="stroke: #000000; stroke-width: 1.0;"/><text fill="#000000" font-family="sans-serif" font-size="11" lengthAdjust="spacingAndGlyphs" textLength="33" x="167" y="121.6992">status</text><ellipse cx="158" cy="131.0195" fill="#000000" rx="3" ry="3" style="stroke: #000000; stroke-width: 1.0;"/><text fill="#000000" font-family="sans-serif" font-size="11" lengthAdjust="spacingAndGlyphs" textLength="47" x="167" y="134.6543">category</text><ellipse cx="158" cy="143.9746" fill="#000000" rx="3" ry="3" style="stroke: #000000; stroke-width: 1.0;"/><text fill="#000000" font-family="sans-serif" font-size="11" lengthAdjust="spacingAndGlyphs" textLength="52" x="167" y="147.6094">cost_ship</text><ellipse cx="158" cy="156.9297" fill="#000000" rx="3" ry="3" style="stroke: #000000; stroke-width: 1.0;"/><text fill="#000000" font-family="sans-serif" font-size="11" lengthAdjust="spacingAndGlyphs" textLength="65" x="167" y="160.5645">day_to_ship</text><ellipse cx="158" cy="169.8848" fill="#000000" rx="3" ry="3" style="stroke: #000000; stroke-width: 1.0;"/><text fill="#000000" font-family="sans-serif" font-size="11" lengthAdjust="spacingAndGlyphs" textLength="84" x="167" y="173.5195">area_from_ship</text><ellipse cx="158" cy="182.8398" fill="#000000" rx="3" ry="3" style="stroke: #000000; stroke-width: 1.0;"/><text fill="#000000" font-family="sans-serif" font-size="11" lengthAdjust="spacingAndGlyphs" textLength="27" x="167" y="186.4746">price</text><polygon fill="none" points="158,190.7949,162,194.7949,158,198.7949,154,194.7949" style="stroke: #B38D22; stroke-width: 1.0;"/><text fill="#000000" font-family="sans-serif" font-size="11" lengthAdjust="spacingAndGlyphs" textLength="24" x="167" y="199.4297">user</text><polygon fill="none" points="158,203.75,162,207.75,158,211.75,154,207.75" style="stroke: #B38D22; stroke-width: 1.0;"/><text fill="#000000" font-family="sans-serif" font-size="11" lengthAdjust="spacingAndGlyphs" textLength="50" x="167" y="212.3848">purchase</text><ellipse cx="158" cy="221.7051" fill="#000000" rx="3" ry="3" style="stroke: #000000; stroke-width: 1.0;"/><text fill="#000000" font-family="sans-serif" font-size="11" lengthAdjust="spacingAndGlyphs" textLength="184" x="167" y="225.3398">(image provided by ActiveStorage)</text><!--MD5=[66d11936ce76bf6dada3e2f3ead0a769]
class Purchases--><rect codeLine="34" fill="#FEFECE" filter="url(#fvq32qmcfu4ei)" height="86.8652" id="Purchases" style="stroke: #A80036; stroke-width: 1.5;" width="90" x="207" y="266.1992"/><ellipse cx="222" cy="282.1992" fill="#ADD1B2" rx="11" ry="11" style="stroke: #A80036; stroke-width: 1.0;"/><path d="M225.6143,288.6992 L217.8945,288.6992 L217.8945,276.3062 L225.6143,276.3062 L225.6143,278.4644 L220.3433,278.4644 L220.3433,281.1372 L225.1162,281.1372 L225.1162,283.2954 L220.3433,283.2954 L220.3433,286.541 L225.6143,286.541 Z "/><text fill="#000000" font-family="sans-serif" font-size="12" lengthAdjust="spacingAndGlyphs" textLength="58" x="236" y="286.7344">Purchases</text><line style="stroke: #A80036; stroke-width: 1.5;" x1="208" x2="296" y1="298.1992" y2="298.1992"/><ellipse cx="218" cy="309.1992" fill="#000000" rx="3" ry="3" style="stroke: #000000; stroke-width: 1.0;"/><text fill="#000000" font-family="sans-serif" font-size="11" lengthAdjust="spacingAndGlyphs" textLength="10" x="227" y="312.834">id</text><line style="stroke: #A80036; stroke-width: 1.0;" x1="208" x2="296" y1="319.1543" y2="319.1543"/><polygon fill="none" points="218,325.1543,222,329.1543,218,333.1543,214,329.1543" style="stroke: #B38D22; stroke-width: 1.0;"/><text fill="#000000" font-family="sans-serif" font-size="11" lengthAdjust="spacingAndGlyphs" textLength="24" x="227" y="333.7891">user</text><polygon fill="none" points="218,338.1094,222,342.1094,218,346.1094,214,342.1094" style="stroke: #B38D22; stroke-width: 1.0;"/><text fill="#000000" font-family="sans-serif" font-size="11" lengthAdjust="spacingAndGlyphs" textLength="23" x="227" y="346.7441">ship</text><!--MD5=[df8116ae06fc72c6cfbc80bd1fc14ec5]
class Ships--><rect codeLine="41" fill="#FEFECE" filter="url(#fvq32qmcfu4ei)" height="125.7305" id="Ships" style="stroke: #A80036; stroke-width: 1.5;" width="82" x="417" y="246.6992"/><ellipse cx="441" cy="262.6992" fill="#ADD1B2" rx="11" ry="11" style="stroke: #A80036; stroke-width: 1.0;"/><path d="M444.6143,269.1992 L436.8945,269.1992 L436.8945,256.8062 L444.6143,256.8062 L444.6143,258.9644 L439.3433,258.9644 L439.3433,261.6372 L444.1162,261.6372 L444.1162,263.7954 L439.3433,263.7954 L439.3433,267.041 L444.6143,267.041 Z "/><text fill="#000000" font-family="sans-serif" font-size="12" lengthAdjust="spacingAndGlyphs" textLength="30" x="457" y="267.2344">Ships</text><line style="stroke: #A80036; stroke-width: 1.5;" x1="418" x2="498" y1="278.6992" y2="278.6992"/><ellipse cx="428" cy="289.6992" fill="#000000" rx="3" ry="3" style="stroke: #000000; stroke-width: 1.0;"/><text fill="#000000" font-family="sans-serif" font-size="11" lengthAdjust="spacingAndGlyphs" textLength="10" x="437" y="293.334">id</text><line style="stroke: #A80036; stroke-width: 1.0;" x1="418" x2="498" y1="299.6543" y2="299.6543"/><ellipse cx="428" cy="310.6543" fill="#000000" rx="3" ry="3" style="stroke: #000000; stroke-width: 1.0;"/><text fill="#000000" font-family="sans-serif" font-size="11" lengthAdjust="spacingAndGlyphs" textLength="42" x="437" y="314.2891">zipcode</text><ellipse cx="428" cy="323.6094" fill="#000000" rx="3" ry="3" style="stroke: #000000; stroke-width: 1.0;"/><text fill="#000000" font-family="sans-serif" font-size="11" lengthAdjust="spacingAndGlyphs" textLength="56" x="437" y="327.2441">prefecture</text><ellipse cx="428" cy="336.5645" fill="#000000" rx="3" ry="3" style="stroke: #000000; stroke-width: 1.0;"/><text fill="#000000" font-family="sans-serif" font-size="11" lengthAdjust="spacingAndGlyphs" textLength="19" x="437" y="340.1992">city</text><ellipse cx="428" cy="349.5195" fill="#000000" rx="3" ry="3" style="stroke: #000000; stroke-width: 1.0;"/><text fill="#000000" font-family="sans-serif" font-size="11" lengthAdjust="spacingAndGlyphs" textLength="29" x="437" y="353.1543">block</text><ellipse cx="428" cy="362.4746" fill="#000000" rx="3" ry="3" style="stroke: #000000; stroke-width: 1.0;"/><text fill="#000000" font-family="sans-serif" font-size="11" lengthAdjust="spacingAndGlyphs" textLength="34" x="437" y="366.1094">phone</text><!--MD5=[bd955551bfb88a0879689005a5ee4663]
link Users to Products--><path codeLine="51" d="M94.89,199.2492 C108.24,193.2992 123.45,186.5292 139.02,179.5892 " fill="none" id="Users-Products" style="stroke: #A80036; stroke-width: 1.0;"/><line style="stroke: #A80036; stroke-width: 1.0;" x1="139.3742" x2="144.2352" y1="179.4389" y2="170.6999"/><line style="stroke: #A80036; stroke-width: 1.0;" x1="139.3742" x2="149.1248" y1="179.4389" y2="181.6585"/><line style="stroke: #A80036; stroke-width: 1.0;" x1="139.3742" x2="146.68" y1="179.4389" y2="176.1792"/><ellipse cx="133.8949" cy="181.8837" fill="none" rx="4" ry="4" style="stroke: #A80036; stroke-width: 1.0;"/><line style="stroke: #A80036; stroke-width: 1.0;" x1="92.7527" x2="89.493" y1="204.5822" y2="197.2765"/><line style="stroke: #A80036; stroke-width: 1.0;" x1="95.4924" x2="92.2327" y1="203.3599" y2="196.0541"/><line style="stroke: #A80036; stroke-width: 1.0;" x1="94.7758" x2="87.47" y1="199.2995" y2="202.5592"/><!--MD5=[949989f7cf1eb43c8b094d0f3645a888]
link Users to Purchases--><path codeLine="52" d="M94.86,240.1292 C125.88,253.9592 166.91,272.2392 199.13,286.5892 " fill="none" id="Users-Purchases" style="stroke: #A80036; stroke-width: 1.0;"/><line style="stroke: #A80036; stroke-width: 1.0;" x1="199.3842" x2="209.1348" y1="286.6995" y2="284.4799"/><line style="stroke: #A80036; stroke-width: 1.0;" x1="199.3842" x2="204.2452" y1="286.6995" y2="295.4385"/><line style="stroke: #A80036; stroke-width: 1.0;" x1="199.3842" x2="206.69" y1="286.6995" y2="289.9592"/><ellipse cx="193.9049" cy="284.2547" fill="none" rx="4" ry="4" style="stroke: #A80036; stroke-width: 1.0;"/><line style="stroke: #A80036; stroke-width: 1.0;" x1="89.493" x2="92.7527" y1="242.122" y2="234.8162"/><line style="stroke: #A80036; stroke-width: 1.0;" x1="92.2327" x2="95.4924" y1="243.3444" y2="236.0386"/><line style="stroke: #A80036; stroke-width: 1.0;" x1="94.7758" x2="87.47" y1="240.0989" y2="236.8392"/><!--MD5=[4de2c2250aa5c63c553a2d08c2d94c9b]
link Products to Purchases--><path codeLine="53" d="M252,238.5892 C252,245.3992 252,252.2092 252,259.0192 " fill="none" id="Products-Purchases" style="stroke: #A80036; stroke-width: 1.0;"/><line style="stroke: #A80036; stroke-width: 1.0;" x1="256" x2="248" y1="262.1092" y2="262.1092"/><line style="stroke: #A80036; stroke-width: 1.0;" x1="256" x2="248" y1="259.1092" y2="259.1092"/><line style="stroke: #A80036; stroke-width: 1.0;" x1="252" x2="252" y1="258.1092" y2="266.1092"/><line style="stroke: #A80036; stroke-width: 1.0;" x1="248" x2="256" y1="235.2092" y2="235.2092"/><line style="stroke: #A80036; stroke-width: 1.0;" x1="248" x2="256" y1="238.2092" y2="238.2092"/><line style="stroke: #A80036; stroke-width: 1.0;" x1="252" x2="252" y1="239.2092" y2="231.2092"/><!--MD5=[6b75249c3542d51574458beec70d5aae]
link Purchases to Ships--><path codeLine="54" d="M304.29,309.6992 C336.57,309.6992 377.95,309.6992 409.49,309.6992 " fill="none" id="Purchases-Ships" style="stroke: #A80036; stroke-width: 1.0;"/><line style="stroke: #A80036; stroke-width: 1.0;" x1="412.87" x2="412.87" y1="305.6992" y2="313.6992"/><line style="stroke: #A80036; stroke-width: 1.0;" x1="409.87" x2="409.87" y1="305.6992" y2="313.6992"/><line style="stroke: #A80036; stroke-width: 1.0;" x1="408.87" x2="416.87" y1="309.6992" y2="309.6992"/><line style="stroke: #A80036; stroke-width: 1.0;" x1="301.01" x2="301.01" y1="313.6992" y2="305.6992"/><line style="stroke: #A80036; stroke-width: 1.0;" x1="304.01" x2="304.01" y1="313.6992" y2="305.6992"/><line style="stroke: #A80036; stroke-width: 1.0;" x1="305.01" x2="297.01" y1="309.6992" y2="309.6992"/><!--MD5=[432fa5ec98b73f972745f89ff0d9957c]
@startuml "ER図"
title ER Diagram for furima-28193 created by PlantUML
left to right direction 

entity Users {
  * id
  - -
  * firstname
  * lastname
  * kana
  * nickname
  * email
  * birthday
  * password
  # product
  # purchase
}

entity Products {
  * id
  - -
  * name
  * description
  * status
  * category
  * cost_ship
  * day_to_ship
  * area_from_ship
  * price
  # user
  # purchase
  * (image provided by ActiveStorage)
}

entity Purchases {
  * id
  - -
  #user
  #ship
}

entity Ships {
  * id
  - -
  * zipcode
  * prefecture
  * city
  * block
  * phone
}

Users ||- -o{ Products
Users ||- -o{ Purchases
Products ||-|| Purchases
Purchases ||- -|| Ships

@enduml

PlantUML version 1.2020.18(Thu Oct 01 04:40:44 JST 2020)
(GPL source distribution)
Java Runtime: Java(TM) SE Runtime Environment
JVM: Java HotSpot(TM) 64-Bit Server VM
Default Encoding: UTF-8
Language: ja
Country: JP
--></g></svg>